# xmcd
#
# Track frame offsets:
#	151
#	12277
#	25813
#	40757
#	57794
#	75138
#	92676
#	104687
#	147565
#	162367
#	177780
#	192155
#	211234
#	228318
#	250110
#
# Disc length: 3654 seconds
#
# Revision: 0
# Processed by: cddbd v1.4PL0 Copyright (c) Steve Scherf et al.
# Submitted via: AudioConverter v4.2 Copyright (c) Dennis Rebentrost
#
DISCID=b80e440f
DTITLE=Mixed - Blues in the Park
DYEAR=2003
DGENRE=Blues
TTITLE0=Steve Burnside - Something You Got
TTITLE1=Steve Burnside - Love's Funny That Way
TTITLE2=Steve Burnside - Rhapsody of Blues
TTITLE3=Gatorbait - Heavens Where You Dwell
TTITLE4=Gatorbait - Start it Up
TTITLE5=Gatorbait - Goin To The Church
TTITLE6=Ned Green - Everybody Needs Somebody to Love
TTITLE7=Ned Green - Jmes Brown Meledy
TTITLE8=Ned Green - Midnight Hour
TTITLE9=Gil Hicks - 99 1/2 Wont Do
TTITLE10=Gil Hicks - Nothin Left to Me
TTITLE11=Gil Hicks - Throw Me a Bone
TTITLE12=Odyssey Blues - Lollipop Daddy
TTITLE13=Odyssey Blues - Hurt So Bad
TTITLE14=Odyssey Blues - Black Drawers
EXTD=
EXTT0=
EXTT1=
EXTT2=
EXTT3=
EXTT4=
EXTT5=
EXTT6=
EXTT7=
EXTT8=
EXTT9=
EXTT10=
EXTT11=
EXTT12=
EXTT13=
EXTT14=
PLAYORDER=
